<?xml version="1.0" encoding="UTF-8"?>
<svg xmlns="http://www.w3.org/2000/svg" xmlns:xlink="http://www.w3.org/1999/xlink" width="120px" height="17px" viewBox="0 0 122 17" version="1.1">
<g id="surface1">
<path style=" stroke:none;fill-rule:nonzero;fill:rgb(100%,100%,100%);fill-opacity:1;" d="M 3.210938 0.570312 L 3.210938 5.515625 L 6.5625 0.570312 L 10.460938 0.570312 L 4.796875 6.363281 L 15.136719 0.570312 L 15.136719 4.25 L 5.851562 7.746094 L 15.136719 6.871094 L 15.136719 10.367188 L 5.851562 9.496094 L 15.136719 12.988281 L 15.136719 16.667969 L 4.796875 10.875 L 10.460938 16.667969 L 6.558594 16.667969 L 3.210938 11.722656 L 3.210938 16.667969 L 0 16.667969 L 0 0.570312 Z M 3.210938 0.570312 "/>
<path style=" stroke:none;fill-rule:nonzero;fill:rgb(100%,100%,100%);fill-opacity:1;" d="M 17.425781 0.570312 L 21.210938 0.570312 L 20.636719 10.984375 L 25.335938 0.570312 L 28.433594 0.570312 L 28.433594 16.664062 L 24.648438 16.664062 L 25.222656 6.25 L 20.523438 16.664062 L 17.425781 16.664062 Z M 17.425781 0.570312 "/>
<path style=" stroke:none;fill-rule:nonzero;fill:rgb(100%,100%,100%);fill-opacity:1;" d="M 30.726562 0.570312 L 34.507812 0.570312 L 34.507812 6.78125 L 37.71875 6.78125 L 37.71875 0.570312 L 41.5 0.570312 L 41.5 16.664062 L 37.71875 16.664062 L 37.71875 9.308594 L 34.507812 9.308594 L 34.507812 16.664062 L 30.726562 16.664062 Z M 30.726562 0.570312 "/>
<path style=" stroke:none;fill-rule:nonzero;fill:rgb(100%,100%,100%);fill-opacity:1;" d="M 43.242188 8.621094 C 43.242188 4.019531 45.351562 0.25 49.59375 0.25 C 53.832031 0.25 55.941406 4.019531 55.941406 8.621094 C 55.941406 13.21875 53.832031 16.988281 49.59375 16.988281 C 45.351562 16.988281 43.242188 13.21875 43.242188 8.621094 Z M 49.59375 14.597656 C 51.082031 14.597656 51.953125 11.953125 51.953125 8.621094 C 51.953125 5.285156 51.082031 2.640625 49.59375 2.640625 C 48.101562 2.640625 47.230469 5.285156 47.230469 8.621094 C 47.234375 11.953125 48.101562 14.597656 49.59375 14.597656 Z M 49.59375 14.597656 "/>
<path style=" stroke:none;fill-rule:nonzero;fill:rgb(100%,100%,100%);fill-opacity:1;" d="M 57.683594 0.570312 L 68.574219 0.570312 L 68.574219 16.664062 L 64.792969 16.664062 L 64.792969 3.097656 L 61.46875 3.097656 L 61.46875 16.664062 L 57.6875 16.664062 L 57.6875 0.570312 Z M 57.683594 0.570312 "/>
<path style=" stroke:none;fill-rule:nonzero;fill:rgb(100%,100%,100%);fill-opacity:1;" d="M 70.316406 8.621094 C 70.316406 4.019531 72.425781 0.25 76.667969 0.25 C 80.910156 0.25 83.019531 4.019531 83.019531 8.621094 C 83.019531 13.21875 80.910156 16.988281 76.667969 16.988281 C 72.425781 16.988281 70.316406 13.21875 70.316406 8.621094 Z M 76.671875 14.597656 C 78.160156 14.597656 79.035156 11.953125 79.035156 8.621094 C 79.035156 5.285156 78.160156 2.640625 76.671875 2.640625 C 75.179688 2.640625 74.308594 5.285156 74.308594 8.621094 C 74.308594 11.953125 75.179688 14.597656 76.671875 14.597656 Z M 76.671875 14.597656 "/>
<path style=" stroke:none;fill-rule:nonzero;fill:rgb(100%,100%,100%);fill-opacity:1;" d="M 84.761719 0.570312 L 88.546875 0.570312 L 87.972656 10.984375 L 92.671875 0.570312 L 95.769531 0.570312 L 95.769531 16.664062 L 91.988281 16.664062 L 92.558594 6.25 L 87.859375 16.664062 L 84.761719 16.664062 Z M 84.761719 0.570312 "/>
<path style=" stroke:none;fill-rule:nonzero;fill:rgb(100%,100%,100%);fill-opacity:1;" d="M 105.832031 10.984375 L 109.429688 11.539062 L 109.316406 12.089844 C 108.695312 15.078125 106.816406 16.984375 103.722656 16.984375 C 99.480469 16.984375 97.507812 13.214844 97.507812 8.617188 C 97.507812 4.019531 99.480469 0.246094 103.722656 0.246094 C 106.703125 0.246094 108.605469 2.15625 109.273438 4.960938 L 109.386719 5.441406 L 105.695312 6.269531 C 105.421875 4.039062 104.757812 2.636719 103.722656 2.636719 C 102.234375 2.636719 101.5 5.28125 101.5 8.613281 C 101.5 11.949219 102.234375 14.59375 103.722656 14.59375 C 104.847656 14.597656 105.554688 13.101562 105.832031 10.984375 Z M 105.832031 10.984375 "/>
<path style=" stroke:none;fill-rule:nonzero;fill:rgb(100%,100%,100%);fill-opacity:1;" d="M 110.988281 0.570312 L 114.773438 0.570312 L 114.773438 7.8125 L 117.867188 0.570312 L 121.765625 0.570312 L 117.296875 8.367188 L 121.878906 16.664062 L 117.640625 16.664062 L 114.773438 9.421875 L 114.773438 16.664062 L 110.992188 16.664062 L 110.992188 0.570312 Z M 110.988281 0.570312 "/>
</g>
</svg>
